<svg width="20" height="14" viewBox="0 0 20 14" fill="none" xmlns="http://www.w3.org/2000/svg">
<path fill-rule="evenodd" clip-rule="evenodd" d="M19.6248 6.99998C19.6248 6.81765 19.5523 6.64278 19.4234 6.51385C19.2945 6.38492 19.1196 6.31248 18.9373 6.31248H2.72189L7.04901 1.98673C7.11294 1.92281 7.16364 1.84693 7.19823 1.76341C7.23283 1.67989 7.25063 1.59038 7.25063 1.49998C7.25063 1.40959 7.23283 1.32007 7.19823 1.23656C7.16364 1.15304 7.11294 1.07715 7.04901 1.01323C6.98509 0.949312 6.90921 0.898608 6.82569 0.864014C6.74218 0.82942 6.65266 0.811615 6.56226 0.811615C6.47187 0.811615 6.38235 0.82942 6.29884 0.864014C6.21532 0.898608 6.13944 0.949312 6.07551 1.01323L0.575514 6.51323C0.51149 6.5771 0.460693 6.65296 0.426034 6.73649C0.391376 6.82001 0.373535 6.90955 0.373535 6.99998C0.373535 7.09041 0.391376 7.17995 0.426034 7.26348C0.460693 7.347 0.51149 7.42287 0.575514 7.48673L6.07551 12.9867C6.13944 13.0507 6.21532 13.1014 6.29884 13.136C6.38235 13.1705 6.47187 13.1884 6.56226 13.1884C6.65266 13.1884 6.74218 13.1705 6.82569 13.136C6.90921 13.1014 6.98509 13.0507 7.04901 12.9867C7.11294 12.9228 7.16364 12.8469 7.19823 12.7634C7.23283 12.6799 7.25063 12.5904 7.25063 12.5C7.25063 12.4096 7.23283 12.3201 7.19823 12.2366C7.16364 12.153 7.11294 12.0772 7.04901 12.0132L2.72189 7.68748H18.9373C19.1196 7.68748 19.2945 7.61505 19.4234 7.48612C19.5523 7.35719 19.6248 7.18232 19.6248 6.99998Z" fill="#4F4F4F"/>
</svg>
