<svg width="20" height="14" viewBox="0 0 20 14" fill="none" xmlns="http://www.w3.org/2000/svg">
<path fill-rule="evenodd" clip-rule="evenodd" d="M0.375235 6.99998C0.375235 6.81765 0.447666 6.64278 0.576597 6.51385C0.70553 6.38492 0.880398 6.31248 1.06273 6.31248H17.2781L12.951 1.98673C12.8871 1.92281 12.8364 1.84693 12.8018 1.76341C12.7672 1.67989 12.7494 1.59038 12.7494 1.49998C12.7494 1.40959 12.7672 1.32007 12.8018 1.23656C12.8364 1.15304 12.8871 1.07715 12.951 1.01323C13.0149 0.949312 13.0908 0.898608 13.1743 0.864014C13.2578 0.82942 13.3473 0.811615 13.4377 0.811615C13.5281 0.811615 13.6176 0.82942 13.7012 0.864014C13.7847 0.898608 13.8606 0.949312 13.9245 1.01323L19.4245 6.51323C19.4885 6.5771 19.5393 6.65296 19.574 6.73649C19.6086 6.82001 19.6265 6.90955 19.6265 6.99998C19.6265 7.09041 19.6086 7.17995 19.574 7.26348C19.5393 7.347 19.4885 7.42287 19.4245 7.48673L13.9245 12.9867C13.8606 13.0507 13.7847 13.1014 13.7012 13.136C13.6176 13.1705 13.5281 13.1884 13.4377 13.1884C13.3473 13.1884 13.2578 13.1705 13.1743 13.136C13.0908 13.1014 13.0149 13.0507 12.951 12.9867C12.8871 12.9228 12.8364 12.8469 12.8018 12.7634C12.7672 12.6799 12.7494 12.5904 12.7494 12.5C12.7494 12.4096 12.7672 12.3201 12.8018 12.2366C12.8364 12.153 12.8871 12.0772 12.951 12.0132L17.2781 7.68748H1.06273C0.880398 7.68748 0.70553 7.61505 0.576597 7.48612C0.447666 7.35719 0.375235 7.18232 0.375235 6.99998Z" fill="#009846"/>
</svg>
