<svg width="31" height="17" viewBox="0 0 31 17" fill="none" xmlns="http://www.w3.org/2000/svg">
<path d="M21.1033 14.2401H10.3948C10.1351 14.2401 9.92432 14.0293 9.92432 13.7696C9.92432 13.5099 10.1351 13.2991 10.3948 13.2991H21.1033C21.363 13.2991 21.5738 13.5099 21.5738 13.7696C21.5738 14.0293 21.3639 14.2401 21.1033 14.2401Z" fill="white"/>
<path d="M7.84682 16.7883C6.18221 16.7883 4.82812 15.4342 4.82812 13.7696C4.82812 12.104 6.18221 10.7499 7.84682 10.7499C9.51144 10.7499 10.8655 12.104 10.8655 13.7696C10.8655 15.4342 9.51144 16.7883 7.84682 16.7883ZM7.84682 11.6909C6.70164 11.6909 5.76912 12.6235 5.76912 13.7696C5.76912 14.9157 6.70164 15.8473 7.84682 15.8473C8.99295 15.8473 9.92453 14.9157 9.92453 13.7696C9.92453 12.6235 8.99295 11.6909 7.84682 11.6909Z" fill="white"/>
<path d="M23.6525 16.7883C21.9879 16.7883 20.6338 15.4342 20.6338 13.7696C20.6338 12.104 21.9879 10.7499 23.6525 10.7499C25.3171 10.7499 26.6712 12.104 26.6712 13.7696C26.6712 15.4342 25.3171 16.7883 23.6525 16.7883ZM23.6525 11.6909C22.5064 11.6909 21.5748 12.6235 21.5748 13.7696C21.5748 14.9157 22.5073 15.8473 23.6525 15.8473C24.7977 15.8473 25.7302 14.9157 25.7302 13.7696C25.7302 12.6235 24.7977 11.6909 23.6525 11.6909Z" fill="white"/>
<path d="M21.1071 14.2401H10.3968C10.1371 14.2401 9.92627 14.0293 9.92627 13.7696C9.92627 13.5099 10.1371 13.2991 10.3968 13.2991H21.1071C21.3668 13.2991 21.5776 13.5099 21.5776 13.7696C21.5776 14.0293 21.3668 14.2401 21.1071 14.2401Z" fill="white"/>
<path d="M28.4499 14.2401H26.1981C25.9384 14.2401 25.7276 14.0293 25.7276 13.7696C25.7276 13.5098 25.9384 13.2991 26.1981 13.2991H28.4499C29.0286 13.2991 29.5142 12.8841 29.6036 12.311L30.0449 9.48523C30.0948 9.16717 30.0138 8.851 29.8181 8.59505C29.6224 8.34004 29.3382 8.18008 29.0173 8.14432L23.1305 7.40658C23.0279 7.39341 22.9319 7.3473 22.8585 7.27484L17.4206 1.91402C16.9218 1.42282 16.2622 1.15182 15.5621 1.15182H3.89476C3.07704 1.15182 2.39482 1.79075 2.34119 2.60659L1.94409 8.63834C1.93656 8.74561 1.89233 8.84912 1.81894 8.92816L1.33997 9.44194C1.08214 9.7186 0.940991 10.0771 0.940991 10.4526V12.5952C0.940991 12.9829 1.25622 13.2991 1.64485 13.2991H5.29496C5.55467 13.2991 5.76545 13.5098 5.76545 13.7696C5.76545 14.0293 5.55467 14.2401 5.29496 14.2401H1.64485C0.737737 14.2401 0 13.5023 0 12.5952V10.4526C0 9.8381 0.231484 9.25092 0.650225 8.80113L1.01533 8.40968L1.40208 2.54542C1.48771 1.23651 2.58302 0.212708 3.89476 0.212708H15.5621C16.5106 0.212708 17.4046 0.579694 18.0811 1.24497L23.4062 6.49476L29.1274 7.2118C29.6986 7.2739 30.2124 7.56279 30.5662 8.02481C30.92 8.4859 31.0649 9.05802 30.9755 9.63202L30.5342 12.4578C30.3724 13.4901 29.4963 14.2401 28.4499 14.2401Z" fill="white"/>
<path d="M18.131 7.77168H4.57694C4.31723 7.77168 4.10645 7.5609 4.10645 7.30118C4.10645 7.04147 4.31723 6.83069 4.57694 6.83069H18.131C18.3907 6.83069 18.6015 7.04147 18.6015 7.30118C18.6015 7.5609 18.3907 7.77168 18.131 7.77168Z" fill="white"/>
</svg>
