<svg width="48" height="48" viewBox="0 0 48 48" fill="none" xmlns="http://www.w3.org/2000/svg">
<path d="M14.4001 4.80005C13.1271 4.80005 11.9062 5.30576 11.006 6.20594C10.1058 7.10611 9.6001 8.32701 9.6001 9.60005V24H12.0001V9.60005C12.0001 8.96353 12.253 8.35308 12.703 7.90299C13.1531 7.4529 13.7636 7.20005 14.4001 7.20005H24.0001V15.6C24.0001 16.5548 24.3794 17.4705 25.0545 18.1456C25.7296 18.8208 26.6453 19.2 27.6001 19.2H36.0001V38.4C36.0001 39.0366 35.7472 39.647 35.2972 40.0971C34.8471 40.5472 34.2366 40.8 33.6001 40.8H26.4001V43.2H33.6001C34.8731 43.2 36.094 42.6943 36.9942 41.7942C37.8944 40.894 38.4001 39.6731 38.4001 38.4V17.7936C38.3993 16.8392 38.0194 15.9241 37.3441 15.2496L27.9505 5.85365C27.2756 5.1792 26.3606 4.80025 25.4065 4.80005H14.4001ZM35.5033 16.8H27.6001C27.2818 16.8 26.9766 16.6736 26.7516 16.4486C26.5265 16.2235 26.4001 15.9183 26.4001 15.6V7.69685L35.5033 16.8Z" fill="#009846"/>
<path d="M8.3999 26.4001C8.71816 26.4001 9.02339 26.5266 9.24843 26.7516C9.47347 26.9767 9.5999 27.2819 9.5999 27.6001C9.5999 27.9184 9.47347 28.2236 9.24843 28.4487C9.02339 28.6737 8.71816 28.8001 8.3999 28.8001H5.9999C5.68164 28.8001 5.37642 28.9266 5.15137 29.1516C4.92633 29.3767 4.7999 29.6819 4.7999 30.0001V42.0001C4.7999 42.3184 4.92633 42.6236 5.15137 42.8487C5.37642 43.0737 5.68164 43.2001 5.9999 43.2001H8.3999C8.71816 43.2001 9.02339 43.3266 9.24843 43.5516C9.47347 43.7767 9.5999 44.0819 9.5999 44.4001C9.5999 44.7184 9.47347 45.0236 9.24843 45.2487C9.02339 45.4737 8.71816 45.6001 8.3999 45.6001H5.9999C5.04512 45.6001 4.12945 45.2209 3.45432 44.5457C2.77919 43.8706 2.3999 42.9549 2.3999 42.0001V30.0001C2.3999 29.0454 2.77919 28.1297 3.45432 27.4546C4.12945 26.7794 5.04512 26.4001 5.9999 26.4001H8.3999Z" fill="#009846"/>
<path d="M17.9998 43.2001C17.6815 43.2001 17.3763 43.3266 17.1513 43.5516C16.9262 43.7767 16.7998 44.0819 16.7998 44.4001C16.7998 44.7184 16.9262 45.0236 17.1513 45.2487C17.3763 45.4737 17.6815 45.6001 17.9998 45.6001H20.3998C21.3546 45.6001 22.2703 45.2209 22.9454 44.5457C23.6205 43.8706 23.9998 42.9549 23.9998 42.0001V30.0001C23.9998 29.0454 23.6205 28.1297 22.9454 27.4546C22.2703 26.7794 21.3546 26.4001 20.3998 26.4001H17.9998C17.6815 26.4001 17.3763 26.5266 17.1513 26.7516C16.9262 26.9767 16.7998 27.2819 16.7998 27.6001C16.7998 27.9184 16.9262 28.2236 17.1513 28.4487C17.3763 28.6737 17.6815 28.8001 17.9998 28.8001H20.3998C20.7181 28.8001 21.0233 28.9266 21.2483 29.1516C21.4734 29.3767 21.5998 29.6819 21.5998 30.0001V42.0001C21.5998 42.3184 21.4734 42.6236 21.2483 42.8487C21.0233 43.0737 20.7181 43.2001 20.3998 43.2001H17.9998Z" fill="#009846"/>
<path d="M13.1976 33.6001C13.5159 33.6001 13.8211 33.7265 14.0461 33.9516C14.2712 34.1766 14.3976 34.4818 14.3976 34.8001L14.4 42.0001C14.4 42.3184 14.2736 42.6236 14.0485 42.8486C13.8235 43.0737 13.5183 43.2001 13.2 43.2001C12.8817 43.2001 12.5765 43.0737 12.3515 42.8486C12.1264 42.6236 12 42.3184 12 42.0001V34.8001C12 34.4818 12.1264 34.1766 12.3515 33.9516C12.5765 33.7265 12.8817 33.6001 13.2 33.6001H13.1976Z" fill="#009846"/>
<path d="M13.2 31.2C13.5183 31.2 13.8235 31.0736 14.0485 30.8486C14.2736 30.6235 14.4 30.3183 14.4 30C14.4 29.6818 14.2736 29.3766 14.0485 29.1515C13.8235 28.9265 13.5183 28.8 13.2 28.8C12.8817 28.8 12.5765 28.9265 12.3515 29.1515C12.1264 29.3766 12 29.6818 12 30C12 30.3183 12.1264 30.6235 12.3515 30.8486C12.5765 31.0736 12.8817 31.2 13.2 31.2Z" fill="#009846"/>
</svg>
