<svg width="14" height="16" viewBox="0 0 14 16" fill="none" xmlns="http://www.w3.org/2000/svg">
<path d="M6.99979 0.446533C10.4616 0.446533 13.2676 3.2526 13.2676 6.71439C13.2676 9.36296 11.4066 12.2494 7.73265 15.4045C7.52836 15.58 7.2679 15.6764 6.99859 15.6762C6.72927 15.6759 6.46898 15.5791 6.265 15.4032L6.022 15.1924C2.51072 12.1195 0.731934 9.30382 0.731934 6.71439C0.731934 3.2526 3.538 0.446533 6.99979 0.446533ZM6.99979 4.30368C6.36043 4.30368 5.74725 4.55766 5.29516 5.00976C4.84306 5.46185 4.58908 6.07503 4.58908 6.71439C4.58908 7.35375 4.84306 7.96693 5.29516 8.41902C5.74725 8.87112 6.36043 9.1251 6.99979 9.1251C7.63915 9.1251 8.25233 8.87112 8.70442 8.41902C9.15652 7.96693 9.4105 7.35375 9.4105 6.71439C9.4105 6.07503 9.15652 5.46185 8.70442 5.00976C8.25233 4.55766 7.63915 4.30368 6.99979 4.30368Z" fill="#009846"/>
</svg>
