<svg width="25" height="23" viewBox="0 0 25 23" fill="none" xmlns="http://www.w3.org/2000/svg">
<path d="M2.3501 2.52501C2.3501 1.94816 2.57925 1.39494 2.98714 0.987049C3.39503 0.579157 3.94825 0.350006 4.5251 0.350006H20.4751C21.0519 0.350006 21.6052 0.579157 22.0131 0.987049C22.4209 1.39494 22.6501 1.94816 22.6501 2.52501V12.675C22.6501 13.2519 22.4209 13.8051 22.0131 14.213C21.6052 14.6209 21.0519 14.85 20.4751 14.85H12.5001V13.4H20.4751C20.6674 13.4 20.8518 13.3236 20.9878 13.1877C21.1237 13.0517 21.2001 12.8673 21.2001 12.675V2.52501C21.2001 2.33272 21.1237 2.14832 20.9878 2.01235C20.8518 1.87639 20.6674 1.80001 20.4751 1.80001H4.5251C4.33282 1.80001 4.14841 1.87639 4.01245 2.01235C3.87648 2.14832 3.8001 2.33272 3.8001 2.52501V4.70001H2.3501V2.52501Z" fill="white"/>
<path d="M12.5 17.75H23.375C23.5673 17.75 23.7517 17.6736 23.8877 17.5376C24.0236 17.4017 24.1 17.2173 24.1 17.025C24.1 16.8327 24.0236 16.6483 23.8877 16.5123C23.7517 16.3764 23.5673 16.3 23.375 16.3H12.5V17.75Z" fill="white"/>
<path d="M5.2499 17.75C5.05762 17.75 4.87321 17.8264 4.73725 17.9623C4.60129 18.0983 4.5249 18.2827 4.5249 18.475C4.5249 18.6673 4.60129 18.8517 4.73725 18.9877C4.87321 19.1236 5.05762 19.2 5.2499 19.2H6.6999C6.89218 19.2 7.07659 19.1236 7.21255 18.9877C7.34852 18.8517 7.4249 18.6673 7.4249 18.475C7.4249 18.2827 7.34852 18.0983 7.21255 17.9623C7.07659 17.8264 6.89218 17.75 6.6999 17.75H5.2499Z" fill="white"/>
<path d="M0.899902 8.32499C0.899902 7.74815 1.12905 7.19493 1.53695 6.78704C1.94484 6.37914 2.49806 6.14999 3.0749 6.14999H8.8749C9.45175 6.14999 10.005 6.37914 10.4129 6.78704C10.8207 7.19493 11.0499 7.74815 11.0499 8.32499V19.925C11.0499 20.5018 10.8207 21.0551 10.4129 21.4629C10.005 21.8708 9.45175 22.1 8.8749 22.1H3.0749C2.49806 22.1 1.94484 21.8708 1.53695 21.4629C1.12905 21.0551 0.899902 20.5018 0.899902 19.925V8.32499ZM3.0749 7.59999C2.88262 7.59999 2.69821 7.67638 2.56225 7.81234C2.42629 7.9483 2.3499 8.13271 2.3499 8.32499V19.925C2.3499 20.1173 2.42629 20.3017 2.56225 20.4376C2.69821 20.5736 2.88262 20.65 3.0749 20.65H8.8749C9.06718 20.65 9.25159 20.5736 9.38755 20.4376C9.52352 20.3017 9.5999 20.1173 9.5999 19.925V8.32499C9.5999 8.13271 9.52352 7.9483 9.38755 7.81234C9.25159 7.67638 9.06718 7.59999 8.8749 7.59999H3.0749Z" fill="white"/>
</svg>
