<svg width="15" height="15" viewBox="0 0 15 15" fill="none" xmlns="http://www.w3.org/2000/svg">
<path d="M14.2191 11.5692L11.001 8.64319C10.8489 8.50493 10.649 8.43119 10.4435 8.43754C10.238 8.44389 10.0431 8.52984 9.89977 8.67724L8.00531 10.6255C7.54931 10.5384 6.63256 10.2527 5.68889 9.31136C4.74522 8.3669 4.45943 7.44778 4.37472 6.99494L6.32143 5.09969C6.46901 4.9565 6.55508 4.76151 6.56143 4.55598C6.56779 4.35045 6.49392 4.15052 6.35547 3.99848L3.43026 0.781151C3.29176 0.628642 3.09925 0.536134 2.89364 0.523274C2.68802 0.510413 2.48549 0.578214 2.32906 0.712277L0.61114 2.18557C0.47427 2.32293 0.392576 2.50576 0.381557 2.69936C0.369682 2.89728 0.143265 7.58553 3.7786 11.2224C6.95001 14.3931 10.9226 14.625 12.0167 14.625C12.1766 14.625 12.2748 14.6203 12.3009 14.6187C12.4945 14.6079 12.6772 14.5258 12.8139 14.3883L14.2864 12.6696C14.421 12.5137 14.4893 12.3113 14.4767 12.1057C14.4641 11.9001 14.3717 11.7076 14.2191 11.5692Z" fill="#009846"/>
</svg>
