<svg width="24" height="24" viewBox="0 0 24 24" fill="none" xmlns="http://www.w3.org/2000/svg">
<g clip-path="url(#clip0)">
<path d="M23.863 4.52897L19.4723 0.138197C19.3724 0.0382593 19.2324 -0.0116156 19.0922 0.0027281L16.6504 0.249149C16.4695 0.267431 16.3153 0.38818 16.2543 0.559461C16.2391 0.602352 16.2303 0.646461 16.2278 0.690524L16.019 4.30875C14.3954 3.33666 12.5337 2.81775 10.5923 2.81775C7.76323 2.81775 5.10354 3.91945 3.10311 5.91984C1.10268 7.92027 0.000976562 10.58 0.000976562 13.409C0.000976562 16.2381 1.10268 18.8978 3.10311 20.8982C5.10354 22.8986 7.76327 24.0003 10.5923 24.0003C13.4213 24.0003 16.081 22.8986 18.0814 20.8982C20.0819 18.8978 21.1836 16.238 21.1836 13.409C21.1836 11.4675 20.6646 9.6059 19.6925 7.98224C19.6925 7.98224 23.3123 7.77313 23.3131 7.77304C23.3564 7.77032 23.3997 7.76193 23.4418 7.74693C23.613 7.6859 23.7338 7.53168 23.7521 7.35084L23.9985 4.90903C24.0127 4.76841 23.963 4.62891 23.863 4.52897ZM21.5208 3.51811L21.0367 4.39069L19.6105 2.96457L20.4832 2.48044L21.5208 3.51811ZM20.3598 5.04534L18.2869 6.13143C18.2194 6.06014 18.1511 5.98945 18.0815 5.91979C18.0118 5.85014 17.9411 5.78184 17.8699 5.71434L18.956 3.64149L20.3598 5.04534ZM18.9645 0.961882L19.7907 1.78805L18.9181 2.27218L17.7321 1.08624L18.9645 0.961882ZM17.1071 1.79269L18.2585 2.94403L17.1384 5.08167C17.0685 5.02641 16.9979 4.97208 16.9268 4.91878L17.1071 1.79269ZM17.4157 20.2324C15.5931 22.0551 13.1698 23.0588 10.5922 23.0588C8.01462 23.0588 5.59142 22.055 3.76873 20.2324C1.9461 18.4098 0.942365 15.9866 0.942365 13.409C0.942365 10.8313 1.94614 8.40805 3.76873 6.58546C5.64992 4.70423 8.12102 3.7636 10.5922 3.7636C13.0633 3.7636 15.5344 4.70419 17.4157 6.58546C21.1782 10.348 21.1782 16.47 17.4157 20.2324ZM19.0824 7.07442C19.0291 7.00331 18.9748 6.93271 18.9195 6.86278L21.0572 5.74275L22.2085 6.89409L19.0824 7.07442ZM22.915 6.26915L21.7291 5.08322L22.2132 4.21059L23.0394 5.03676L22.915 6.26915Z" fill="white"/>
<path d="M14.7519 17.5693C13.6405 18.6807 12.1629 19.2927 10.5913 19.2927C10.3314 19.2927 10.1206 19.5035 10.1206 19.7634C10.1206 20.0234 10.3314 20.2341 10.5913 20.2341C12.4144 20.2341 14.1285 19.5241 15.4177 18.235C16.0815 17.5711 16.5917 16.7969 16.9341 15.9339C17.0299 15.6922 16.9117 15.4186 16.67 15.3228C16.4285 15.2268 16.1548 15.3452 16.0589 15.5868C15.7642 16.3298 15.3245 16.9968 14.7519 17.5693Z" fill="white"/>
<path d="M16.9352 13.9668C16.9375 13.9668 16.9397 13.9668 16.9421 13.9668C17.1989 13.9668 17.4089 13.7605 17.4126 13.5027C17.4131 13.4714 17.4132 13.44 17.4132 13.4087C17.4132 13.1487 17.2024 12.938 16.9425 12.938C16.6826 12.938 16.4718 13.1487 16.4718 13.4087C16.4718 13.4356 16.4716 13.4626 16.4712 13.4894C16.4675 13.7493 16.6752 13.963 16.9352 13.9668Z" fill="white"/>
<path d="M10.5912 4.70029C8.26513 4.70029 6.07823 5.6061 4.43348 7.25089C2.79117 8.8932 1.88672 11.0801 1.88672 13.4087C1.88672 15.7373 2.79117 17.9241 4.43353 19.5664C6.07827 21.2112 8.26518 22.1171 10.5913 22.1171C12.9173 22.1171 15.1042 21.2113 16.749 19.5665C18.3913 17.9242 19.2958 15.7373 19.2958 13.4087C19.2958 11.0801 18.3913 8.89325 16.749 7.25094C15.1041 5.6061 12.9173 4.70029 10.5912 4.70029ZM16.0833 18.9008C14.6163 20.3678 12.6658 21.1757 10.5913 21.1757C8.51661 21.1757 6.56619 20.3678 5.0992 18.9008C3.63468 17.4363 2.82815 15.4858 2.82815 13.4087C2.82815 11.3315 3.63468 9.38112 5.0992 7.91666C6.56615 6.44966 8.51661 5.64172 10.5913 5.64172C12.6658 5.64172 14.6163 6.44961 16.0833 7.91666C17.5478 9.38112 18.3543 11.3316 18.3543 13.4087C18.3543 15.4858 17.5478 17.4362 16.0833 18.9008Z" fill="white"/>
</g>
<defs>
<clipPath id="clip0">
<rect width="24" height="24" fill="white"/>
</clipPath>
</defs>
</svg>
