<svg width="35" height="35" viewBox="0 0 35 35" fill="none" xmlns="http://www.w3.org/2000/svg">
<path d="M22.4219 14.2188H25.1562L26.25 13.125H30.625V12.0312H26.25L25.1562 10.9375H22.4219V12.0312H24.7034L25.1562 12.4841V12.6711L24.7034 13.125H22.4219V14.2188ZM32.8125 12.0312V13.125H31.7188V12.0312H32.8125Z" fill="white"/>
<path d="M15.3125 14.2188H16.4062V15.3125H15.3125V14.2188ZM15.3125 13.125H16.4062V12.0312H15.3125V13.125ZM15.3125 10.9375H16.4062V9.84375H15.3125V10.9375ZM22.9688 15.3125H19.6875V16.4062L17.5 17.5H14.8717L15.3125 19.6875V20.7812H12.1527L11.6506 23.0409L13.125 26.25V28.4375H5.46875V26.25L7.41344 17.5H4.375V16.4062H3.28125L2.1875 14.2188V10.9375L3.28125 8.75H4.375V7.65625H17.5L19.6875 8.75V9.84375H22.9688V15.3125ZM4.375 15.3125V9.84375H3.95719L3.28125 11.1956V13.9606L3.95719 15.3125H4.375ZM6.5625 26.25V27.3438H12.0312V26.25H6.5625ZM11.7611 17.5H8.53344L8.29063 18.5938H9.84375V19.6875H8.04781L7.805 20.7812H9.29688V21.875H7.56109L7.31828 22.9688H8.75V24.0625H7.07547L6.83266 25.1562H11.4187L10.5033 23.1634L11.7611 17.5ZM13.7561 17.5H12.8822L12.3966 19.6875H14.1969L13.7561 17.5ZM18.5938 9.42594L17.2419 8.75H5.46875V16.4062H17.2419L18.5938 15.7303V9.42594ZM21.875 10.9375H19.6875V12.0312H20.7812V13.125H19.6875V14.2188H21.875V10.9375Z" fill="white"/>
</svg>
